HIERARCHY
ROOT Hips
{
	OFFSET 0.00000 0.00000 0.00000
	CHANNELS 6 Xposition Yposition Zposition Zrotation Yrotation Xrotation 
	JOINT LHipJoint
	{
		OFFSET 0 0 0
		CHANNELS 3 Zrotation Yrotation Xrotation
		JOINT LeftUpLeg
		{
			OFFSET 1.74857 -1.85566 0.69197
			CHANNELS 3 Zrotation Yrotation Xrotation
			JOINT LeftLeg
			{
				OFFSET 2.40003 -6.59403 0.00000
				CHANNELS 3 Zrotation Yrotation Xrotation
				JOINT LeftFoot
				{
					OFFSET 2.82169 -7.75254 0.00000
					CHANNELS 3 Zrotation Yrotation Xrotation
					JOINT LeftToeBase
					{
						OFFSET 0.16466 -0.45240 2.26890
						CHANNELS 3 Zrotation Yrotation Xrotation
						End Site
						{
							OFFSET 0.00000 -0.00000 1.16486
						}
					}
				}
			}
		}
	}
	JOINT RHipJoint
	{
		OFFSET 0 0 0
		CHANNELS 3 Zrotation Yrotation Xrotation
		JOINT RightUpLeg
		{
			OFFSET -1.64169 -1.85566 0.69197
			CHANNELS 3 Zrotation Yrotation Xrotation
			JOINT RightLeg
			{
				OFFSET -2.41814 -6.64379 0.00000
				CHANNELS 3 Zrotation Yrotation Xrotation
				JOINT RightFoot
				{
					OFFSET -2.80588 -7.70911 0.00000
					CHANNELS 3 Zrotation Yrotation Xrotation
					JOINT RightToeBase
					{
						OFFSET -0.19098 -0.52472 2.25401
						CHANNELS 3 Zrotation Yrotation Xrotation
						End Site
						{
							OFFSET -0.00000 -0.00000 1.16333
						}
					}
				}
			}
		}
	}
	JOINT LowerBack
	{
		OFFSET 0 0 0
		CHANNELS 3 Zrotation Yrotation Xrotation
		JOINT Spine
		{
			OFFSET -0.02828 2.14690 -0.11061
			CHANNELS 3 Zrotation Yrotation Xrotation
			JOINT Spine1
			{
				OFFSET -0.00167 2.15299 0.00759
				CHANNELS 3 Zrotation Yrotation Xrotation
				JOINT Neck
				{
					OFFSET 0 0 0
					CHANNELS 3 Zrotation Yrotation Xrotation
					JOINT Neck1
					{
						OFFSET -0.09296 1.90118 0.07197
						CHANNELS 3 Zrotation Yrotation Xrotation
						JOINT Head
						{
							OFFSET 0.08490 1.89526 -0.24604
							CHANNELS 3 Zrotation Yrotation Xrotation
							End Site
							{
								OFFSET 0.03186 1.92109 -0.09483
							}
						}
					}
				}
				JOINT LeftShoulder
				{
					OFFSET 0 0 0
					CHANNELS 3 Zrotation Yrotation Xrotation
					JOINT LeftArm
					{
						OFFSET 3.21569 1.44644 -0.03720
						CHANNELS 3 Zrotation Yrotation Xrotation
						JOINT LeftForeArm
						{
							OFFSET 5.47651 -0.00000 -0.00000
							CHANNELS 3 Zrotation Yrotation Xrotation
							JOINT LeftHand
							{
								OFFSET 3.09058 -0.00000 -0.00000
								CHANNELS 3 Zrotation Yrotation Xrotation
								JOINT LeftFingerBase
								{
									OFFSET 0 0 0
									CHANNELS 3 Zrotation Yrotation Xrotation
									JOINT LeftHandIndex1
									{
										OFFSET 0.77161 -0.00000 -0.00000
										CHANNELS 3 Zrotation Yrotation Xrotation
										End Site
										{
											OFFSET 0.62209 -0.00000 -0.00000
										}
									}
								}
								JOINT LThumb
								{
									OFFSET 0 0 0
									CHANNELS 3 Zrotation Yrotation Xrotation
									End Site
									{
										OFFSET 0.63159 -0.00000 0.63159
									}
								}
							}
						}
					}
				}
				JOINT RightShoulder
				{
					OFFSET 0 0 0
					CHANNELS 3 Zrotation Yrotation Xrotation
					JOINT RightArm
					{
						OFFSET -3.38693 1.28904 -0.07093
						CHANNELS 3 Zrotation Yrotation Xrotation
						JOINT RightForeArm
						{
							OFFSET -5.14182 -0.00000 -0.00000
							CHANNELS 3 Zrotation Yrotation Xrotation
							JOINT RightHand
							{
								OFFSET -3.35565 -0.00000 -0.00000
								CHANNELS 3 Zrotation Yrotation Xrotation
								JOINT RightFingerBase
								{
									OFFSET 0 0 0
									CHANNELS 3 Zrotation Yrotation Xrotation
									JOINT RightHandIndex1
									{
										OFFSET -0.80104 -0.00000 -0.00000
										CHANNELS 3 Zrotation Yrotation Xrotation
										End Site
										{
											OFFSET -0.64582 -0.00000 -0.00000
										}
									}
								}
								JOINT RThumb
								{
									OFFSET 0 0 0
									CHANNELS 3 Zrotation Yrotation Xrotation
									End Site
									{
										OFFSET -0.65568 -0.00000 0.65568
									}
								}
							}
						}
					}
				}
			}
		}
	}
}
MOTION
Frames: 8
Frame Time: .0083333
0.4908 18.1404 -0.0642 0 0 0 0 0 0 -21 0 0 0 0 0 0 0 0 0 0 0 0 0 0 21 0 0 0 0 0 0 0 0 0 0 0 0 0 0 0 0 0 0 0 0 0 0 -16 0 0 21 0 0 11 0 0 0 -8 0 0 0 0 0 0 0 0 0 0 0 0 0 0 0 0 0 0 0 0 8 0 0 0 0 0 0 0 0 0 0 0 0 0 0 0 0 0
0.4908 18.1404 -0.0642 5.1565 -8.9850 1.1290 0.0000 0.0000 0.0000 -26.8384 -2.4104 4.4668 0.0669 1.6694 4.5928 -0.5326 18.1830 -20.4916 0.3945 -4.0330 -11.1696 0.0000 0.0000 0.0000 11.8542 6.6589 -6.6384 -1.3371 -7.3218 20.6722 -0.0837 -12.4880 -18.7979 -0.5005 4.5353 -12.5877 -1.7917 2.3752 3.9624 -0.3484 3.1403 5.7865 0.6181 1.5019 3.6712 -5.3785 -5.8250 -6.9171 4.1590 -8.1873 22.3323 1.5129 -3.9164 8.4652 0.0000 0.0000 0.0000 -70.9629 27.0138 63.6571 62.3232 -56.8979 -36.2808 -0.0000 0.0000 -70.7448 22.7178 43.0612 15.9532 -7.1250 0.0000 -0.0000 -25.9653 74.0037 -18.1045 0.0000 0.0000 0.0000 78.7457 -29.2941 54.8645 -57.0836 55.4813 -31.9260 0.0000 -0.0000 -90.6830 -30.2030 1.1046 -0.6429 7.1250 -0.0000 -0.0000 -2.8268 -28.6971 -1.1235
0.4719 18.1418 -0.0700 5.0353 -9.1420 1.1108 0.0000 0.0000 0.0000 -26.6339 -2.3040 4.3096 0.0747 1.7629 4.8510 -0.5263 18.1644 -20.5322 0.4090 -4.1057 -11.3743 0.0000 0.0000 0.0000 12.0753 6.8323 -6.5392 -1.3273 -7.2959 20.5949 -0.0138 -12.8057 -18.3816 -0.6632 5.2083 -14.5037 -1.6973 2.3897 4.0148 -0.3306 3.1594 5.8373 0.5829 1.5140 3.6983 -5.2881 -5.8053 -6.9517 4.0998 -8.1580 22.3052 1.4805 -3.9006 8.4540 -0.0000 0.0000 0.0000 -70.7841 26.7528 63.5494 62.3263 -56.8986 -36.2834 -0.0000 0.0000 -70.3401 23.2718 42.7264 16.2679 -7.1250 0.0000 -0.0000 -24.5366 73.9252 -17.0375 -0.0000 0.0000 0.0000 78.9234 -29.1792 54.6661 -56.7698 55.3859 -31.6676 0.0000 -0.0000 -90.2666 -29.8605 1.0419 -0.5981 7.1250 -0.0000 -0.0000 -2.5629 -28.7747 -1.0137
0.4548 18.1440 -0.0753 5.0100 -9.2930 1.1685 0.0000 0.0000 0.0000 -26.5429 -2.1889 4.2079 0.0746 1.7626 4.8500 -0.5256 18.1560 -20.5247 0.4173 -4.1465 -11.4892 0.0000 0.0000 0.0000 12.1575 6.9613 -6.5980 -1.3255 -7.2911 20.5806 -0.0791 -12.4631 -18.7095 -0.4818 4.4513 -12.3499 -1.6418 2.3909 3.9903 -0.3791 3.1635 5.8461 0.5035 1.5190 3.7268 -5.1464 -5.7755 -6.9557 4.0420 -8.1245 22.2837 1.4416 -3.8792 8.4367 -0.0000 -0.0000 0.0000 -70.5972 26.5772 63.3547 62.3252 -56.8984 -36.2825 -0.0000 0.0000 -69.8972 23.4859 42.7224 16.4255 -7.1250 0.0000 -0.0000 -24.2476 73.9999 -16.8691 -0.0000 -0.0000 0.0000 79.1716 -29.0781 54.4613 -56.5068 55.3049 -31.4513 0.0000 -0.0000 -89.8173 -29.8402 0.9690 -0.5558 7.1250 -0.0000 -0.0000 -2.5497 -28.8589 -1.0033
0.4376 18.1456 -0.0800 4.9806 -9.4065 1.2514 0.0000 0.0000 0.0000 -26.4399 -2.1335 4.0640 0.0761 1.7797 4.8973 -0.5187 18.1298 -20.5576 0.4273 -4.1950 -11.6260 0.0000 0.0000 0.0000 12.2295 6.9928 -6.7270 -1.3245 -7.2884 20.5727 -0.1469 -12.0796 -19.0125 -0.3262 3.6707 -10.1520 -1.6273 2.3675 3.9461 -0.3906 3.1335 5.8368 0.4856 1.5046 3.7438 -5.0149 -5.7439 -6.8882 3.9202 -8.0723 22.1894 1.3877 -3.8577 8.3785 0.0000 -0.0000 0.0000 -70.5144 26.4273 63.0663 62.2814 -56.8878 -36.2458 -0.0000 0.0000 -69.3754 23.5672 42.9518 16.5532 -7.1250 0.0000 -0.0000 -24.6261 74.2235 -17.2557 0.0000 -0.0000 0.0000 79.3284 -28.9933 54.2792 -56.2150 55.2140 -31.2115 0.0000 -0.0000 -89.4047 -29.7359 1.0714 -0.6120 7.1250 -0.0000 -0.0000 -2.4649 -28.7424 -0.9767
0.4193 18.1472 -0.0845 4.9814 -9.5431 1.2846 0.0000 0.0000 0.0000 -26.3718 -2.0545 3.9101 0.0808 1.8334 5.0454 -0.5000 18.0786 -20.6835 0.4313 -4.2144 -11.6805 0.0000 0.0000 0.0000 12.2772 6.9748 -6.8234 -1.3229 -7.2843 20.5604 -0.1480 -11.9816 -18.9014 -0.3261 3.6703 -10.1510 -1.6993 2.3590 3.9397 -0.3601 3.1202 5.8227 0.5569 1.4945 3.7275 -4.9644 -5.7226 -6.7371 3.7695 -8.0193 22.1011 1.3402 -3.8462 8.3098 -0.0000 -0.0000 0.0000 -70.4714 26.2140 62.8819 62.0048 -56.8209 -36.0142 -0.0000 0.0000 -68.7895 23.5586 43.0073 16.5631 -7.1250 0.0000 -0.0000 -24.7566 74.2671 -17.3724 -0.0000 -0.0000 0.0000 79.3984 -29.0006 54.1057 -56.0098 55.1493 -31.0430 0.0000 -0.0000 -88.9716 -29.6128 1.1727 -0.6664 7.1250 -0.0000 -0.0000 -2.3656 -28.6279 -0.9437
0.4002 18.1488 -0.0925 4.9187 -9.7164 1.3036 0.0000 0.0000 0.0000 -26.2281 -1.9606 3.6889 0.0899 1.9333 5.3214 -0.4565 17.9212 -20.9029 0.4064 -4.0924 -11.3367 0.0000 0.0000 0.0000 12.4180 7.0761 -6.8570 -1.3187 -7.2730 20.5268 -0.1439 -11.9578 -18.8222 -0.3217 3.6457 -10.0821 -1.6637 2.3766 4.0103 -0.3571 3.1417 5.7998 0.5362 1.5072 3.6651 -4.8987 -5.6710 -6.6345 3.6812 -7.9430 22.1122 1.3110 -3.8149 8.2844 0.0000 -0.0000 0.0000 -70.3701 26.0118 62.6434 61.7574 -56.7603 -35.8072 -0.0000 0.0000 -68.0863 23.4656 43.1663 16.5401 -7.1250 0.0000 -0.0000 -25.2244 74.3661 -17.7628 0.0000 -0.0000 0.0000 79.5821 -29.0425 53.8647 -55.8361 55.0942 -30.9005 0.0000 -0.0000 -88.5693 -29.6477 0.9584 -0.5454 7.1250 -0.0000 -0.0000 -2.4001 -28.8736 -0.9435
0.3820 18.1507 -0.1027 4.6973 -9.8774 1.3643 0.0000 0.0000 0.0000 -25.9048 -1.8629 3.5022 0.0955 1.9927 5.4855 -0.4306 17.8145 -21.0100 0.3820 -3.9693 -10.9904 0.0000 0.0000 0.0000 12.7330 7.1729 -6.9268 -1.3166 -7.2677 20.5109 -0.1416 -11.9094 -18.7339 -0.3253 3.6661 -10.1392 -1.4238 2.3726 4.1232 -0.3379 3.1361 5.7842 0.4172 1.5140 3.5967 -4.7806 -5.6241 -6.5555 3.5618 -7.8684 22.0198 1.2628 -3.7836 8.2250 -0.0000 0.0000 0.0000 -70.2859 25.8115 62.2946 61.7157 -56.7500 -35.7723 -0.0000 0.0000 -67.3481 23.7064 43.3272 16.7674 -7.1250 0.0000 -0.0000 -25.2648 74.5896 -17.9099 -0.0000 0.0000 0.0000 79.8188 -28.9917 53.5969 -55.5593 55.0055 -30.6736 0.0000 -0.0000 -88.1900 -29.8000 0.5638 -0.3229 7.1250 -0.0000 -0.0000 -2.5322 -29.3258 -0.9684
